<svg xmlns="http://www.w3.org/2000/svg" version="1.1" xmlns:xlink="http://www.w3.org/1999/xlink" xmlns:svgjs="http://svgjs.com/svgjs" width="1920" height="1080" preserveAspectRatio="none" viewBox="0 0 1920 1080"><g mask="url(&quot;#SvgjsMask1011&quot;)" fill="none"><rect width="1920" height="1080" x="0" y="0" fill="#0e2a47"></rect><path d="M1501.75 667.41L1507.77 667.41L1507.77 764.94L1501.75 764.94z" stroke="rgba(116, 241, 124, 1)"></path><path d="M1722.37 659.84L1824.04 659.84L1824.04 712.13L1722.37 712.13z" fill="rgba(116, 241, 124, 1)"></path><path d="M261.36 461.73a30.55 30.55 0 1 0 60.18-10.56z" stroke="rgba(116, 241, 124, 1)"></path><path d="M86.95 330.35a68.21 68.21 0 1 0-51.26-126.43z" fill="rgba(65, 4, 3, 1)"></path><path d="M1814.4 801.19a30.35 30.35 0 1 0 56.46-22.29z" fill="rgba(87, 211, 20, 1)"></path><path d="M1836.45 1017.69a39.41 39.41 0 1 0 70.29-35.66z" stroke="rgba(87, 211, 20, 1)"></path><path d="M1210.3 26.47a24.65 24.65 0 1 0 30.25-38.93z" stroke="rgba(87, 211, 20, 1)"></path><path d="M703.32 146.86L792.08 146.86L792.08 235.62L703.32 235.62z" fill="rgba(116, 241, 124, 1)"></path><path d="M1537.52 433.34a64.09 64.09 0 1 0 126.32 21.78z" fill="rgba(65, 4, 3, 1)"></path><path d="M682.1 716.98L774.48 716.98L774.48 747.04L682.1 747.04z" fill="rgba(87, 211, 20, 1)"></path><path d="M693 393.43L756.05 393.43L756.05 464.74L693 464.74z" fill="rgba(87, 211, 20, 1)"></path><path d="M835.86 191.32a61.37 61.37 0 1 0 119.7-27.16z" stroke="rgba(65, 4, 3, 1)"></path><path d="M262.5 901.28L293.14 901.28L293.14 944.25L262.5 944.25z" stroke="rgba(116, 241, 124, 1)"></path><path d="M102.58 54.75L148.72 54.75L148.72 83.14L102.58 83.14z" fill="rgba(87, 211, 20, 1)"></path><path d="M606 168.74a9.56 9.56 0 1 0-10.99-15.65z" stroke="rgba(87, 211, 20, 1)"></path><path d="M982.16 101.89L988.78 101.89L988.78 108.51L982.16 108.51z" fill="rgba(116, 241, 124, 1)"></path><path d="M124.24 75.63L196.9 75.63L196.9 115.37L124.24 115.37z" stroke="rgba(87, 211, 20, 1)"></path><path d="M379.45 539.49a42.72 42.72 0 1 0 19.69-83.14z" fill="rgba(87, 211, 20, 1)"></path><path d="M1431.3 512.47 a97.67 97.67 0 1 0 195.34 0 a97.67 97.67 0 1 0 -195.34 0z" fill="rgba(65, 4, 3, 1)"></path><path d="M970.15 764.79a73.32 73.32 0 1 0 138.08 49.35z" stroke="rgba(87, 211, 20, 1)"></path><path d="M15.68 1045.44L110.54 1045.44L110.54 1140.3L15.68 1140.3z" fill="rgba(65, 4, 3, 1)"></path><path d="M1392.78 843.12a100.19 100.19 0 1 0-146.44 136.78z" stroke="rgba(65, 4, 3, 1)"></path><path d="M360.85 663.52L420.18 663.52L420.18 722.85L360.85 722.85z" stroke="rgba(65, 4, 3, 1)"></path></g><defs><mask id="SvgjsMask1011"><rect width="1920" height="1080" fill="#ffffff"></rect></mask></defs></svg>