<svg xmlns="http://www.w3.org/2000/svg" version="1.1" xmlns:xlink="http://www.w3.org/1999/xlink" xmlns:svgjs="http://svgjs.com/svgjs" width="1440" height="560" preserveAspectRatio="none" viewBox="0 0 1440 560"><g mask="url(&quot;#SvgjsMask1002&quot;)" fill="none"><rect width="1440" height="560" x="0" y="0" fill="#0e2a47"></rect><path d="M 0,93 C 57.6,123.6 172.8,238 288,246 C 403.2,254 460.8,151.6 576,133 C 691.2,114.4 748.8,161.6 864,153 C 979.2,144.4 1036.8,66 1152,90 C 1267.2,114 1382.4,236.4 1440,273L1440 560L0 560z" fill="rgba(106, 255, 186, 1)"></path><path d="M 0,377 C 96,403 288,506.4 480,507 C 672,507.6 768,393.2 960,380 C 1152,366.8 1344,428.8 1440,441L1440 560L0 560z" fill="rgba(16, 125, 29, 1)"></path></g><defs><mask id="SvgjsMask1002"><rect width="1440" height="560" fill="#ffffff"></rect></mask></defs></svg>